# xmcd CD database file
#
# Track frame offsets:
#	150
#	12259
#	23310
#	33431
#	47511
#	58605
#	70638
#	84248
#	95791
#	108919
#	120601
#	133249
#	145415
#	156517
#	169833
#	184291
#	196404
#	208288
#	222776
#	233690
#	247030
#	258888
#	270744
#	283196
#	295442
#	308499
#	319897
#	333190
#	346822
#
# Disc length: 4774 seconds
#
# Revision: 0
# Processed by: cddbd v1.5.2PL0 Copyright (c) Steve Scherf et al.
# Submitted via: CDex 1.51
#
DISCID=af12a41d
DTITLE=Various Artist - Jazz Á La Gitane (1-24)
DYEAR=1900
DGENRE=Jazz
TTITLE0=Albert Ferreri Et Le Trio Ferret-Andalousie
TTITLE1=André Ekyan Et Son Orchestre-Hungaria
TTITLE2=Django Reinhardt Et Le Quintette Du Hot Club De France-Les Yeux Noirs
TTITLE3=Django Reinhardt-Echoes Of Spain
TTITLE4=Eddie South-Black Gipsy
TTITLE5=Freddy Valler's String Swing-Nobody's Sweetheart
TTITLE6=Gus Viseur Et Son Orchestre-Nuages
TTITLE7=Gus Viseur Et Son Orchestre-Swing Valse
TTITLE8=Gus Viseur's Music-Daphné
TTITLE9=Jan Mol En Zijn Electro Kwartet-Meditatie
TTITLE10=Jean Ferret Et Son Sixtette-Le Rapide
TTITLE11=Jerry Thomas Swingtette-Wabash Blues
TTITLE12=Joseph Reinhardt Et Son Ensemble-L'oell Noir
TTITLE13=Karel Moravec Sextet-Smich A Plac (Laughing And Crying)
TTITLE14=Le Trio Ferret-La Valse Des Niglos
TTITLE15=Quartette De Tomas Et Ses Merry Boys-Celesta
TTITLE16=Quintette Du Hot Club De France-Tears
TTITLE17=Quintette Du Hot Club De France-When Day Is Done
TTITLE18=Sarane Ferret Et Le Swing Quintette De Paris-Deux Guitares
TTITLE19=Sarane Ferret Et Son Orchestre-Jén Ai Marre
TTITLE20=Secco's Gitanos-Mama Don't Allow It
TTITLE21=Tabanyi Mihaly Es Szolistai-Suzy
TTITLE22=Tony Murena Et Son Ensemble Swing-Gitan Swing
TTITLE23=Tony Murena Et Son Ensemble Swing-Madam's
TTITLE24=You're Driving Me Crazy
TTITLE25=I Will See You In My Dreams
TTITLE26=I Got Rhythm (2)
TTITLE27=Crazy Rhythm (2) (Coleman Hawkins)
TTITLE28=Exactly Like You (1)
EXTD=
EXTT0=
EXTT1=
EXTT2=
EXTT3=
EXTT4=
EXTT5=
EXTT6=
EXTT7=
EXTT8=
EXTT9=
EXTT10=
EXTT11=
EXTT12=
EXTT13=
EXTT14=
EXTT15=
EXTT16=
EXTT17=
EXTT18=
EXTT19=
EXTT20=
EXTT21=
EXTT22=
EXTT23=
EXTT24=
EXTT25=
EXTT26=
EXTT27=
EXTT28=
PLAYORDER=
